<svg xmlns="http://www.w3.org/2000/svg" xmlns:xlink="http://www.w3.org/1999/xlink" width="500" zoomAndPan="magnify" viewBox="0 0 375 374.999991" height="500" preserveAspectRatio="xMidYMid meet" version="1.0"><defs><g/></defs><rect x="-37.5" width="450" fill="#ffffff" y="-37.499999" height="449.999989" fill-opacity="1"/><rect x="-37.5" width="450" fill="#ffffff" y="-37.499999" height="449.999989" fill-opacity="1"/><rect x="-37.5" width="450" fill="#ffffff" y="-37.499999" height="449.999989" fill-opacity="1"/><g fill="#000000" fill-opacity="1"><g transform="translate(81.610457, 118.86252)"><g><path d="M 24.734375 -52.203125 L 24.734375 -52.0625 C 24.734375 -52.007812 24.742188 -51.984375 24.765625 -51.984375 C 24.796875 -51.984375 24.8125 -51.960938 24.8125 -51.921875 L 24.8125 -51.78125 L 24.875 -51.78125 L 25.3125 -50.625 C 25.789062 -49.226562 24.539062 -44.898438 21.5625 -37.640625 C 18.382812 -29.898438 16.914062 -23.867188 17.15625 -19.546875 C 17.6875 -16.460938 20.257812 -18.9375 24.875 -26.96875 C 28.53125 -33.21875 32.066406 -40.066406 35.484375 -47.515625 C 35.910156 -48.523438 36.363281 -49.570312 36.84375 -50.65625 C 37.320312 -51.738281 37.925781 -52.640625 38.65625 -53.359375 C 40.238281 -55.085938 42.160156 -55.546875 44.421875 -54.734375 C 45.191406 -55.640625 46.09375 -56.257812 47.125 -56.59375 C 48.15625 -56.9375 49.140625 -57.007812 50.078125 -56.8125 C 51.015625 -56.625 51.816406 -56.179688 52.484375 -55.484375 C 53.160156 -54.785156 53.523438 -53.863281 53.578125 -52.71875 C 53.722656 -51.75 53.226562 -49.460938 52.09375 -45.859375 C 50.96875 -42.253906 49.921875 -38.960938 48.953125 -35.984375 C 47.992188 -33.003906 47.007812 -29.757812 46 -26.25 C 43.550781 -17.925781 41.609375 -10.085938 40.171875 -2.734375 C 40.117188 -1.203125 39.453125 0.0664062 38.171875 1.078125 C 36.898438 2.085938 35.484375 2.75 33.921875 3.0625 C 32.359375 3.375 30.882812 3.316406 29.5 2.890625 C 27.8125 2.398438 26.921875 1.195312 26.828125 -0.71875 C 26.828125 -1.25 26.800781 -1.78125 26.75 -2.3125 C 26.84375 -0.675781 25.664062 0.71875 23.21875 1.875 C 22.539062 2.207031 21.914062 2.519531 21.34375 2.8125 C 17.976562 3.820312 14.445312 3.601562 10.75 2.15625 C 9.007812 1.4375 7.453125 0.46875 6.078125 -0.75 C 4.710938 -1.976562 3.769531 -3.4375 3.25 -5.125 C 1.5625 -10.507812 1.875 -17.570312 4.1875 -26.3125 C 5.144531 -30.0625 6.320312 -33.710938 7.71875 -37.265625 C 9.113281 -40.828125 10.132812 -43.398438 10.78125 -44.984375 C 11.425781 -46.578125 11.894531 -47.671875 12.1875 -48.265625 C 12.476562 -48.867188 12.789062 -49.460938 13.125 -50.046875 C 13.9375 -51.679688 14.632812 -52.785156 15.21875 -53.359375 L 16.078125 -54.15625 C 16.171875 -54.25 16.265625 -54.304688 16.359375 -54.328125 C 16.460938 -54.359375 16.585938 -54.421875 16.734375 -54.515625 C 17.117188 -54.753906 17.523438 -54.921875 17.953125 -55.015625 L 18.96875 -55.234375 L 19.390625 -55.234375 C 20.785156 -55.429688 21.988281 -55.144531 23 -54.375 C 23 -54.320312 23.046875 -54.296875 23.140625 -54.296875 L 23.71875 -53.796875 L 23.9375 -53.578125 L 24.15625 -53.28125 C 24.15625 -53.238281 24.164062 -53.21875 24.1875 -53.21875 C 24.21875 -53.21875 24.234375 -53.191406 24.234375 -53.140625 L 24.296875 -53.078125 L 24.296875 -52.921875 C 24.347656 -52.921875 24.375 -52.898438 24.375 -52.859375 L 24.375 -52.78125 C 24.414062 -52.738281 24.460938 -52.71875 24.515625 -52.71875 L 24.515625 -52.640625 C 24.515625 -52.585938 24.523438 -52.5625 24.546875 -52.5625 C 24.578125 -52.5625 24.59375 -52.550781 24.59375 -52.53125 C 24.59375 -52.507812 24.613281 -52.472656 24.65625 -52.421875 L 24.65625 -52.34375 C 24.65625 -52.300781 24.679688 -52.253906 24.734375 -52.203125 Z M 26.6875 -4.1875 L 26.6875 -4.40625 C 26.632812 -4.351562 26.609375 -4.160156 26.609375 -3.828125 C 26.609375 -3.960938 26.632812 -4.054688 26.6875 -4.109375 Z M 26.6875 -4.1875 "/></g></g><g transform="translate(131.002629, 118.86252)"><g><path d="M 28.34375 -52.640625 C 28.820312 -51.335938 29.085938 -50.472656 29.140625 -50.046875 C 29.234375 -49.128906 28.894531 -48.359375 28.125 -47.734375 C 28.125 -47.691406 28.078125 -47.617188 27.984375 -47.515625 C 28.421875 -45.253906 28.515625 -43.140625 28.265625 -41.171875 C 28.023438 -39.203125 27.710938 -37.304688 27.328125 -35.484375 C 29.929688 -39.898438 32 -43.144531 33.53125 -45.21875 C 36.707031 -49.488281 39.664062 -52.539062 42.40625 -54.375 C 43.320312 -54.894531 44.441406 -55.285156 45.765625 -55.546875 C 47.085938 -55.816406 48.347656 -55.851562 49.546875 -55.65625 C 50.742188 -55.46875 51.738281 -54.988281 52.53125 -54.21875 C 53.332031 -53.457031 53.679688 -52.304688 53.578125 -50.765625 C 52.234375 -41.390625 50.789062 -32.648438 49.25 -24.546875 C 47.71875 -16.453125 45.722656 -8.726562 43.265625 -1.375 L 43.265625 -1.21875 L 43.203125 -1.21875 C 42.617188 0.507812 41.175781 1.734375 38.875 2.453125 C 36.613281 3.128906 34.59375 3.175781 32.8125 2.59375 C 30.65625 1.96875 29.671875 0.816406 29.859375 -0.859375 L 29.9375 -2.53125 L 29.9375 -2.671875 C 30.125 -3.828125 30.226562 -4.609375 30.25 -5.015625 C 30.28125 -5.421875 30.316406 -5.71875 30.359375 -5.90625 C 30.460938 -7.15625 30.671875 -8.320312 30.984375 -9.40625 C 31.296875 -10.488281 31.519531 -11.363281 31.65625 -12.03125 C 31.800781 -12.707031 31.945312 -13.347656 32.09375 -13.953125 C 32.238281 -14.554688 32.335938 -15.023438 32.390625 -15.359375 C 30.554688 -12.859375 29.253906 -11.34375 28.484375 -10.8125 C 26.566406 -9.46875 24.332031 -8.84375 21.78125 -8.9375 C 20.195312 -9.03125 19.285156 -9.390625 19.046875 -10.015625 C 18.566406 -11.367188 18.226562 -12.164062 18.03125 -12.40625 C 17.738281 -12.789062 17.5 -13.4375 17.3125 -14.34375 C 16.0625 -8.820312 14.835938 -4.90625 13.640625 -2.59375 C 13.148438 -1.675781 12.664062 -0.859375 12.1875 -0.140625 C 11.519531 1.441406 9.984375 2.546875 7.578125 3.171875 C 5.316406 3.796875 3.15625 3.75 1.09375 3.03125 C -1.019531 2.351562 -2.03125 1.148438 -1.9375 -0.578125 C -1.84375 -2.304688 -1.492188 -4.476562 -0.890625 -7.09375 C -0.296875 -9.71875 0.410156 -12.5 1.234375 -15.4375 C 3.679688 -24.707031 5.421875 -30.738281 6.453125 -33.53125 C 7.492188 -36.320312 8.375 -38.507812 9.09375 -40.09375 C 10.820312 -43.789062 12.359375 -46.484375 13.703125 -48.171875 C 15.191406 -51.203125 17.671875 -53.03125 21.140625 -53.65625 C 23.878906 -54.175781 26.28125 -53.835938 28.34375 -52.640625 Z M 28.34375 -52.640625 "/></g></g><g transform="translate(180.827434, 118.86252)"><g><path d="M 4.90625 -27.984375 C 5.863281 -31.203125 6.640625 -33.6875 7.234375 -35.4375 C 7.835938 -37.195312 8.425781 -38.769531 9 -40.15625 C 9.582031 -41.550781 10.242188 -42.898438 10.984375 -44.203125 C 11.734375 -45.503906 12.550781 -46.691406 13.4375 -47.765625 C 14.332031 -48.847656 15.285156 -49.703125 16.296875 -50.328125 C 17.304688 -50.953125 18.363281 -51.265625 19.46875 -51.265625 C 20.570312 -51.265625 21.726562 -50.832031 22.9375 -49.96875 C 24.851562 -45.164062 26.03125 -41.945312 26.46875 -40.3125 C 27.039062 -37.90625 27.566406 -34.515625 28.046875 -30.140625 C 28.484375 -31.242188 28.976562 -32.410156 29.53125 -33.640625 C 30.082031 -34.867188 30.625 -36.109375 31.15625 -37.359375 C 32.644531 -40.523438 33.582031 -42.925781 33.96875 -44.5625 C 35.019531 -47.925781 37.207031 -50.453125 40.53125 -52.140625 C 43.414062 -53.578125 46.109375 -54.03125 48.609375 -53.5 C 49.609375 -53.3125 50.3125 -52.90625 50.71875 -52.28125 C 51.132812 -51.65625 51.132812 -51.003906 50.71875 -50.328125 C 50.3125 -49.660156 50.171875 -49.023438 50.296875 -48.421875 C 50.421875 -47.816406 50.53125 -47.109375 50.625 -46.296875 C 50.769531 -44.085938 50.382812 -42.128906 49.46875 -40.421875 C 48.550781 -38.710938 47.613281 -36.59375 46.65625 -34.0625 C 45.695312 -31.539062 44.722656 -28.863281 43.734375 -26.03125 C 42.742188 -23.195312 41.742188 -20.3125 40.734375 -17.375 C 39.734375 -14.445312 38.75 -11.78125 37.78125 -9.375 C 35.664062 -3.84375 33.9375 -0.789062 32.59375 -0.21875 C 30.769531 0.882812 29.425781 1.535156 28.5625 1.734375 C 27.445312 1.921875 25.882812 1.921875 23.875 1.734375 C 22.625 1.640625 21.539062 0.03125 20.625 -3.09375 C 20.09375 -4.78125 19.613281 -7.113281 19.1875 -10.09375 C 18.414062 -15.289062 17.882812 -18.148438 17.59375 -18.671875 C 15.664062 -12.421875 14.304688 -8.476562 13.515625 -6.84375 C 12.722656 -5.21875 12.125 -4.140625 11.71875 -3.609375 C 11.3125 -3.078125 10.816406 -2.378906 10.234375 -1.515625 C 9.609375 0.210938 8.117188 1.488281 5.765625 2.3125 C 3.742188 3.082031 1.914062 3.203125 0.28125 2.671875 C -1.488281 2.085938 -2.015625 0.976562 -1.296875 -0.65625 C -0.765625 -6.414062 1.300781 -15.523438 4.90625 -27.984375 Z M 4.90625 -27.984375 "/></g></g><g transform="translate(226.253811, 118.86252)"><g><path d="M 30.515625 -48.75 C 28.828125 -43.507812 27.273438 -38.769531 25.859375 -34.53125 C 24.441406 -30.300781 23.144531 -26.40625 21.96875 -22.84375 C 20.789062 -19.289062 19.695312 -16.015625 18.6875 -13.015625 C 17.675781 -10.015625 16.738281 -7.144531 15.875 -4.40625 C 15.394531 -1.226562 13.832031 1.007812 11.1875 2.3125 C 9.644531 3.03125 7.816406 3.390625 5.703125 3.390625 C 3.585938 3.390625 2 3.160156 0.9375 2.703125 C -0.113281 2.242188 -0.796875 1.582031 -1.109375 0.71875 C -1.421875 -0.144531 -1.421875 -1.1875 -1.109375 -2.40625 C -0.796875 -3.632812 -0.253906 -5.316406 0.515625 -7.453125 C 1.285156 -9.597656 2.257812 -12.5 3.4375 -16.15625 C 4.613281 -19.8125 5.847656 -23.507812 7.140625 -27.25 C 10.359375 -36.625 12.90625 -43.117188 14.78125 -46.734375 C 15.507812 -48.078125 16.234375 -48.972656 16.953125 -49.421875 C 17.671875 -49.878906 18.363281 -50.21875 19.03125 -50.4375 C 19.707031 -50.65625 20.332031 -50.90625 20.90625 -51.1875 C 21.488281 -51.476562 22.007812 -52.203125 22.46875 -53.359375 C 22.925781 -54.515625 23.765625 -55.304688 24.984375 -55.734375 C 26.210938 -56.171875 27.367188 -56.207031 28.453125 -55.84375 C 29.535156 -55.488281 30.351562 -54.722656 30.90625 -53.546875 C 31.457031 -52.367188 31.328125 -50.769531 30.515625 -48.75 Z M 30.515625 -48.75 "/></g></g><g transform="translate(252.716479, 118.86252)"><g><path d="M 39.875 -48.890625 C 41.507812 -48.023438 42.546875 -46.75 42.984375 -45.0625 C 42.015625 -39.675781 41.144531 -34.328125 40.375 -29.015625 C 39.613281 -23.710938 38.867188 -19.269531 38.140625 -15.6875 C 37.421875 -12.101562 36.925781 -9.421875 36.65625 -7.640625 C 36.394531 -5.859375 36.097656 -4.082031 35.765625 -2.3125 L 35.328125 -0.796875 C 35.234375 -0.265625 35.140625 0.226562 35.046875 0.6875 C 34.953125 1.144531 34.851562 1.632812 34.75 2.15625 C 33.40625 3.695312 31.582031 4.46875 29.28125 4.46875 C 26.820312 4.46875 24.875 3.84375 23.4375 2.59375 C 22.570312 1.925781 22.425781 0.507812 23 -1.65625 C 23.238281 -2.519531 23.394531 -3.632812 23.46875 -5 C 23.539062 -6.375 23.625 -7.519531 23.71875 -8.4375 L 23.71875 -8.578125 C 22.28125 -8.046875 20.984375 -7.359375 19.828125 -6.515625 C 18.671875 -5.679688 17.945312 -5.15625 17.65625 -4.9375 C 17.375 -4.71875 16.992188 -4.546875 16.515625 -4.421875 C 16.035156 -4.304688 15.601562 -4.226562 15.21875 -4.1875 C 14.300781 -4.132812 13.675781 -3.988281 13.34375 -3.75 C 10.550781 1.25 8.050781 4.035156 5.84375 4.609375 C 4.445312 5.046875 3.050781 5.15625 1.65625 4.9375 C 0.257812 4.71875 -0.84375 3.890625 -1.65625 2.453125 C -3.195312 1.003906 -2.8125 -2.9375 -0.5 -9.375 C 0.75 -12.789062 2.535156 -16.890625 4.859375 -21.671875 C 7.191406 -26.453125 9.441406 -30.625 11.609375 -34.1875 C 16.273438 -41.820312 21.394531 -48.257812 26.96875 -53.5 C 27.882812 -53.882812 28.867188 -54.328125 29.921875 -54.828125 C 30.984375 -55.335938 32.03125 -55.613281 33.0625 -55.65625 C 34.09375 -55.707031 35.160156 -55.585938 36.265625 -55.296875 C 37.367188 -55.015625 38.304688 -54.585938 39.078125 -54.015625 C 40.859375 -52.660156 41.125 -50.953125 39.875 -48.890625 Z M 24.4375 -29.921875 C 23.4375 -27.035156 22.429688 -24.378906 21.421875 -21.953125 C 20.410156 -19.523438 19.546875 -17.398438 18.828125 -15.578125 L 24.515625 -15.796875 C 24.898438 -18.867188 25.332031 -21.921875 25.8125 -24.953125 C 26.289062 -27.984375 26.75 -31.007812 27.1875 -34.03125 Z M 22.5 -15.5 C 23.164062 -15.5 23.835938 -15.546875 24.515625 -15.640625 L 24.515625 -15.71875 C 23.890625 -15.664062 23.3125 -15.613281 22.78125 -15.5625 C 22.257812 -15.519531 22.164062 -15.5 22.5 -15.5 Z M 22.5 -15.5 "/></g></g></g><g fill="#000000" fill-opacity="1"><g transform="translate(102.376801, 195.005782)"><g><path d="M 12.984375 -51.203125 C 13.890625 -53.410156 15.1875 -54.203125 16.875 -53.578125 C 17.351562 -54.628906 17.769531 -55.300781 18.125 -55.59375 C 18.488281 -55.882812 18.863281 -56.113281 19.25 -56.28125 C 19.632812 -56.445312 20.039062 -56.625 20.46875 -56.8125 C 20.90625 -57.007812 21.582031 -57.179688 22.5 -57.328125 C 23.414062 -57.472656 24.425781 -57.554688 25.53125 -57.578125 C 26.632812 -57.597656 27.75 -57.535156 28.875 -57.390625 C 30.007812 -57.253906 30.960938 -56.945312 31.734375 -56.46875 C 33.609375 -55.351562 34.015625 -53.570312 32.953125 -51.125 C 33.046875 -51.175781 33.019531 -51.128906 32.875 -50.984375 L 32.234375 -49.75 L 31.734375 -49.109375 C 31.492188 -48.867188 30.75 -47.398438 29.5 -44.703125 C 28.488281 -42.785156 27.453125 -40.890625 26.390625 -39.015625 C 24.660156 -35.796875 23.601562 -33.726562 23.21875 -32.8125 C 24.90625 -33.726562 26.851562 -35.050781 29.0625 -36.78125 C 33.238281 -40 35.90625 -41.921875 37.0625 -42.546875 C 38.21875 -43.171875 39.023438 -43.554688 39.484375 -43.703125 C 39.941406 -43.847656 40.382812 -43.882812 40.8125 -43.8125 C 41.25 -43.738281 41.707031 -43.601562 42.1875 -43.40625 L 43.984375 -42.6875 C 45.140625 -42.300781 45.765625 -40.90625 45.859375 -38.5 C 45.910156 -36.144531 45.429688 -34.367188 44.421875 -33.171875 C 40.046875 -27.492188 35.117188 -23.695312 29.640625 -21.78125 C 27.953125 -21.15625 26.21875 -20.625 24.4375 -20.1875 C 26.988281 -19.90625 29.421875 -18.222656 31.734375 -15.140625 C 33.609375 -12.640625 34.960938 -10.066406 35.796875 -7.421875 C 36.640625 -4.785156 37.300781 -2.828125 37.78125 -1.546875 C 38.257812 -0.273438 38.460938 0.707031 38.390625 1.40625 C 38.328125 2.101562 37.921875 2.628906 37.171875 2.984375 C 36.429688 3.347656 35.171875 3.695312 33.390625 4.03125 C 32.566406 4.175781 30.882812 3.21875 28.34375 1.15625 C 27.238281 0.238281 26.0625 -0.757812 24.8125 -1.84375 C 23.5625 -2.925781 22.3125 -3.945312 21.0625 -4.90625 C 18.175781 -7.164062 16.15625 -8.34375 15 -8.4375 C 14.90625 -8.4375 14.710938 -8.484375 14.421875 -8.578125 L 13.125 -5.34375 C 12.445312 -3.75 11.757812 -2.070312 11.0625 -0.3125 C 10.363281 1.4375 9.535156 3.007812 8.578125 4.40625 C 7.085938 5.40625 5.359375 5.8125 3.390625 5.625 C 1.128906 5.382812 -0.359375 4.472656 -1.078125 2.890625 C -1.554688 1.398438 -0.765625 -2.972656 1.296875 -10.234375 C 2.691406 -15.335938 3.894531 -19.8125 4.90625 -23.65625 C 5.914062 -27.5 6.78125 -30.679688 7.5 -33.203125 C 8.21875 -35.722656 8.742188 -37.691406 9.078125 -39.109375 C 9.421875 -40.535156 9.757812 -41.921875 10.09375 -43.265625 C 10.914062 -46.390625 11.878906 -49.035156 12.984375 -51.203125 Z M 12.984375 -51.203125 "/></g></g><g transform="translate(144.125805, 195.005782)"><g><path d="M 17.234375 -15.71875 L 13.765625 -6.921875 C 13.285156 -5.578125 12.851562 -4.179688 12.46875 -2.734375 C 12.082031 -1.296875 11.671875 -0.0351562 11.234375 1.046875 C 10.804688 2.128906 10.148438 2.984375 9.265625 3.609375 C 8.378906 4.234375 7.378906 4.703125 6.265625 5.015625 C 5.160156 5.328125 4.019531 5.457031 2.84375 5.40625 C 1.664062 5.363281 0.625 5.148438 -0.28125 4.765625 C -2.351562 3.796875 -3.078125 2.207031 -2.453125 0 C -0.242188 -9.707031 1.832031 -17.492188 3.78125 -23.359375 C 5.726562 -29.222656 7.335938 -33.835938 8.609375 -37.203125 C 9.890625 -40.566406 11.226562 -44.125 12.625 -47.875 C 12.757812 -49.269531 13.332031 -50.519531 14.34375 -51.625 C 15.351562 -52.726562 16.539062 -53.640625 17.90625 -54.359375 C 19.28125 -55.085938 20.710938 -55.609375 22.203125 -55.921875 C 23.691406 -56.234375 25.015625 -56.269531 26.171875 -56.03125 C 27.328125 -55.789062 28.179688 -55.257812 28.734375 -54.4375 C 29.285156 -53.625 29.320312 -52.445312 28.84375 -50.90625 C 27.113281 -46.488281 25.882812 -43.363281 25.15625 -41.53125 C 24.4375 -39.707031 23.789062 -38.070312 23.21875 -36.625 L 21.203125 -31.875 C 22.210938 -31.820312 23.484375 -31.96875 25.015625 -32.3125 C 27.804688 -32.9375 29.828125 -33.148438 31.078125 -32.953125 C 31.078125 -33.191406 31.195312 -33.601562 31.4375 -34.1875 C 32.78125 -40.050781 34.296875 -45.429688 35.984375 -50.328125 C 37.179688 -54.367188 40.28125 -56.484375 45.28125 -56.671875 C 47.25 -56.671875 48.738281 -56.191406 49.75 -55.234375 C 50.851562 -54.222656 51 -52.851562 50.1875 -51.125 C 45.757812 -38.71875 42.632812 -28.9375 40.8125 -21.78125 C 38.75 -13.507812 37.390625 -7.929688 36.734375 -5.046875 C 36.085938 -2.160156 35.523438 -0.457031 35.046875 0.0625 C 34.566406 0.59375 34.070312 0.96875 33.5625 1.1875 C 33.0625 1.40625 32.570312 1.609375 32.09375 1.796875 C 31.613281 1.992188 31.226562 2.476562 30.9375 3.25 L 30.71875 3.25 C 30.332031 4.113281 29.488281 4.785156 28.1875 5.265625 C 26.894531 5.742188 25.585938 5.921875 24.265625 5.796875 C 22.941406 5.679688 21.832031 5.203125 20.9375 4.359375 C 20.050781 3.515625 19.828125 2.226562 20.265625 0.5 C 20.742188 -2.238281 21.535156 -5.179688 22.640625 -8.328125 C 23.742188 -11.472656 24.617188 -13.9375 25.265625 -15.71875 C 25.921875 -17.5 26.460938 -19.160156 26.890625 -20.703125 C 26.503906 -20.503906 26.128906 -20.359375 25.765625 -20.265625 C 25.410156 -20.171875 24.96875 -19.988281 24.4375 -19.71875 C 23.914062 -19.457031 23.378906 -19.226562 22.828125 -19.03125 C 22.273438 -18.84375 21.734375 -18.648438 21.203125 -18.453125 C 19.859375 -17.929688 18.753906 -17.40625 17.890625 -16.875 Z M 25.375 -20.546875 C 25.425781 -20.546875 25.671875 -20.617188 26.109375 -20.765625 C 25.816406 -20.671875 25.570312 -20.597656 25.375 -20.546875 Z M 25.375 -20.546875 "/></g></g><g transform="translate(186.523757, 195.005782)"><g><path d="M 39.875 -48.890625 C 41.507812 -48.023438 42.546875 -46.75 42.984375 -45.0625 C 42.015625 -39.675781 41.144531 -34.328125 40.375 -29.015625 C 39.613281 -23.710938 38.867188 -19.269531 38.140625 -15.6875 C 37.421875 -12.101562 36.925781 -9.421875 36.65625 -7.640625 C 36.394531 -5.859375 36.097656 -4.082031 35.765625 -2.3125 L 35.328125 -0.796875 C 35.234375 -0.265625 35.140625 0.226562 35.046875 0.6875 C 34.953125 1.144531 34.851562 1.632812 34.75 2.15625 C 33.40625 3.695312 31.582031 4.46875 29.28125 4.46875 C 26.820312 4.46875 24.875 3.84375 23.4375 2.59375 C 22.570312 1.925781 22.425781 0.507812 23 -1.65625 C 23.238281 -2.519531 23.394531 -3.632812 23.46875 -5 C 23.539062 -6.375 23.625 -7.519531 23.71875 -8.4375 L 23.71875 -8.578125 C 22.28125 -8.046875 20.984375 -7.359375 19.828125 -6.515625 C 18.671875 -5.679688 17.945312 -5.15625 17.65625 -4.9375 C 17.375 -4.71875 16.992188 -4.546875 16.515625 -4.421875 C 16.035156 -4.304688 15.601562 -4.226562 15.21875 -4.1875 C 14.300781 -4.132812 13.675781 -3.988281 13.34375 -3.75 C 10.550781 1.25 8.050781 4.035156 5.84375 4.609375 C 4.445312 5.046875 3.050781 5.15625 1.65625 4.9375 C 0.257812 4.71875 -0.84375 3.890625 -1.65625 2.453125 C -3.195312 1.003906 -2.8125 -2.9375 -0.5 -9.375 C 0.75 -12.789062 2.535156 -16.890625 4.859375 -21.671875 C 7.191406 -26.453125 9.441406 -30.625 11.609375 -34.1875 C 16.273438 -41.820312 21.394531 -48.257812 26.96875 -53.5 C 27.882812 -53.882812 28.867188 -54.328125 29.921875 -54.828125 C 30.984375 -55.335938 32.03125 -55.613281 33.0625 -55.65625 C 34.09375 -55.707031 35.160156 -55.585938 36.265625 -55.296875 C 37.367188 -55.015625 38.304688 -54.585938 39.078125 -54.015625 C 40.859375 -52.660156 41.125 -50.953125 39.875 -48.890625 Z M 24.4375 -29.921875 C 23.4375 -27.035156 22.429688 -24.378906 21.421875 -21.953125 C 20.410156 -19.523438 19.546875 -17.398438 18.828125 -15.578125 L 24.515625 -15.796875 C 24.898438 -18.867188 25.332031 -21.921875 25.8125 -24.953125 C 26.289062 -27.984375 26.75 -31.007812 27.1875 -34.03125 Z M 22.5 -15.5 C 23.164062 -15.5 23.835938 -15.546875 24.515625 -15.640625 L 24.515625 -15.71875 C 23.890625 -15.664062 23.3125 -15.613281 22.78125 -15.5625 C 22.257812 -15.519531 22.164062 -15.5 22.5 -15.5 Z M 22.5 -15.5 "/></g></g><g transform="translate(227.191181, 195.005782)"><g><path d="M 4.90625 -27.984375 C 5.863281 -31.203125 6.640625 -33.6875 7.234375 -35.4375 C 7.835938 -37.195312 8.425781 -38.769531 9 -40.15625 C 9.582031 -41.550781 10.242188 -42.898438 10.984375 -44.203125 C 11.734375 -45.503906 12.550781 -46.691406 13.4375 -47.765625 C 14.332031 -48.847656 15.285156 -49.703125 16.296875 -50.328125 C 17.304688 -50.953125 18.363281 -51.265625 19.46875 -51.265625 C 20.570312 -51.265625 21.726562 -50.832031 22.9375 -49.96875 C 24.851562 -45.164062 26.03125 -41.945312 26.46875 -40.3125 C 27.039062 -37.90625 27.566406 -34.515625 28.046875 -30.140625 C 28.484375 -31.242188 28.976562 -32.410156 29.53125 -33.640625 C 30.082031 -34.867188 30.625 -36.109375 31.15625 -37.359375 C 32.644531 -40.523438 33.582031 -42.925781 33.96875 -44.5625 C 35.019531 -47.925781 37.207031 -50.453125 40.53125 -52.140625 C 43.414062 -53.578125 46.109375 -54.03125 48.609375 -53.5 C 49.609375 -53.3125 50.3125 -52.90625 50.71875 -52.28125 C 51.132812 -51.65625 51.132812 -51.003906 50.71875 -50.328125 C 50.3125 -49.660156 50.171875 -49.023438 50.296875 -48.421875 C 50.421875 -47.816406 50.53125 -47.109375 50.625 -46.296875 C 50.769531 -44.085938 50.382812 -42.128906 49.46875 -40.421875 C 48.550781 -38.710938 47.613281 -36.59375 46.65625 -34.0625 C 45.695312 -31.539062 44.722656 -28.863281 43.734375 -26.03125 C 42.742188 -23.195312 41.742188 -20.3125 40.734375 -17.375 C 39.734375 -14.445312 38.75 -11.78125 37.78125 -9.375 C 35.664062 -3.84375 33.9375 -0.789062 32.59375 -0.21875 C 30.769531 0.882812 29.425781 1.535156 28.5625 1.734375 C 27.445312 1.921875 25.882812 1.921875 23.875 1.734375 C 22.625 1.640625 21.539062 0.03125 20.625 -3.09375 C 20.09375 -4.78125 19.613281 -7.113281 19.1875 -10.09375 C 18.414062 -15.289062 17.882812 -18.148438 17.59375 -18.671875 C 15.664062 -12.421875 14.304688 -8.476562 13.515625 -6.84375 C 12.722656 -5.21875 12.125 -4.140625 11.71875 -3.609375 C 11.3125 -3.078125 10.816406 -2.378906 10.234375 -1.515625 C 9.609375 0.210938 8.117188 1.488281 5.765625 2.3125 C 3.742188 3.082031 1.914062 3.203125 0.28125 2.671875 C -1.488281 2.085938 -2.015625 0.976562 -1.296875 -0.65625 C -0.765625 -6.414062 1.300781 -15.523438 4.90625 -27.984375 Z M 4.90625 -27.984375 "/></g></g></g></svg>